<svg width="17" height="17" viewBox="0 0 17 17" fill="none" xmlns="http://www.w3.org/2000/svg">
<path d="M13.0763 8.3951C13.0763 6.21997 11.1249 4.44507 8.73348 4.44507C6.34208 4.44507 4.39062 6.22001 4.39062 8.3951C4.39062 8.70826 4.42893 9.02154 4.52461 9.3347C4.63938 9.83927 4.84983 10.1525 5.13689 10.5876C5.19427 10.692 5.27087 10.7963 5.34734 10.9182C5.44303 11.0574 5.51949 11.1967 5.61518 11.3184C5.99777 11.8927 6.22745 12.2233 6.22745 12.9019V14.5377C6.22745 14.9553 6.55267 15.2859 6.99265 15.3555C7.18402 16.2429 7.75784 16.7998 8.73365 16.7998C9.70932 16.7998 10.3025 16.2429 10.4747 15.3555C10.9146 15.286 11.2398 14.9379 11.2398 14.5377V12.9019C11.2398 12.2233 11.4694 11.8753 11.8521 11.3184C11.9286 11.1965 12.0243 11.0575 12.12 10.9182C12.1964 10.7964 12.273 10.692 12.3304 10.5876C12.6173 10.1525 12.8278 9.83939 12.9427 9.3347C13.0381 9.02154 13.0764 8.70826 13.0764 8.3951H13.0763ZM10.4935 13.3196H7.01158V12.9194C7.01158 12.8324 7.01158 12.7628 6.99249 12.6932H10.4936C10.4936 12.7627 10.4745 12.8324 10.4745 12.9194V13.3196H10.4935ZM10.3214 14.6942H7.14549C7.04981 14.6942 6.99242 14.6247 6.99242 14.555V14.0156H10.4744V14.555C10.4934 14.6247 10.417 14.6942 10.3213 14.6942H10.3214ZM8.73345 16.121C8.52299 16.121 7.98732 16.121 7.77687 15.3902H9.70912C9.49866 16.121 8.94393 16.121 8.73345 16.121ZM12.1963 9.19543C12.1006 9.57825 11.9475 9.83923 11.6797 10.2396C11.6032 10.3439 11.5457 10.4483 11.4692 10.5702C11.3735 10.7094 11.2971 10.8486 11.2205 10.953C10.9909 11.301 10.7805 11.6143 10.6465 11.9797H6.85844C6.72445 11.6142 6.53322 11.301 6.28446 10.953C6.20799 10.8312 6.11231 10.7094 6.03571 10.5702C5.95924 10.4483 5.88264 10.3266 5.82525 10.2396C5.55742 9.8219 5.40436 9.57828 5.30867 9.17809C5.2322 8.91712 5.1939 8.65603 5.1939 8.39507C5.1939 6.60277 6.80091 5.14108 8.7715 5.14108C10.742 5.14108 12.3491 6.60273 12.3491 8.39507C12.3111 8.65604 12.2729 8.91701 12.1963 9.19546L12.1963 9.19543Z" fill="#009FFF"/>
<path d="M16.619 8.04712H15.031C14.8206 8.04712 14.6484 8.2037 14.6484 8.39511C14.6484 8.58652 14.8206 8.7431 15.031 8.7431H16.619C16.8294 8.7431 17.0015 8.58652 17.0015 8.39511C17.0017 8.20382 16.8294 8.04712 16.619 8.04712Z" fill="#009FFF"/>
<path d="M13.1717 4.70605C13.2674 4.70605 13.3631 4.67122 13.4395 4.60167L14.5683 3.57505C14.7213 3.43582 14.7213 3.22706 14.5683 3.08782C14.4152 2.94858 14.1857 2.9486 14.0326 3.08782L12.9039 4.11444C12.7508 4.25367 12.7508 4.46243 12.9039 4.60167C12.9803 4.67134 13.076 4.70605 13.1717 4.70605H13.1717Z" fill="#009FFF"/>
<path d="M8.73416 3.01819C8.94461 3.01819 9.11676 2.86161 9.11676 2.6702V1.22592C9.11676 1.0345 8.9446 0.87793 8.73416 0.87793C8.52372 0.87793 8.35156 1.03451 8.35156 1.22592V2.6702C8.35156 2.86162 8.52372 3.01819 8.73416 3.01819Z" fill="#009FFF"/>
<path d="M4.0287 4.60167C4.10517 4.67122 4.20086 4.70605 4.29654 4.70605C4.39222 4.70605 4.48791 4.67122 4.56437 4.60167C4.71744 4.46244 4.71744 4.25368 4.56437 4.11444L3.43565 3.08782C3.28258 2.94859 3.05305 2.94859 2.89996 3.08782C2.74688 3.22704 2.7469 3.4358 2.89996 3.57504L4.0287 4.60167Z" fill="#009FFF"/>
<path d="M2.45879 8.04712H0.870877C0.660424 8.04712 0.488281 8.2037 0.488281 8.39511C0.488281 8.58652 0.660434 8.7431 0.870877 8.7431H2.45879C2.66925 8.7431 2.84139 8.58652 2.84139 8.39511C2.84139 8.20382 2.66924 8.04712 2.45879 8.04712Z" fill="#009FFF"/>
<path d="M4.02868 12.1886L2.89996 13.2153C2.74689 13.3545 2.74689 13.5633 2.89996 13.7025C2.97643 13.772 3.07211 13.8069 3.16779 13.8069C3.26348 13.8069 3.35916 13.772 3.43563 13.7025L4.56435 12.6759C4.71742 12.5367 4.71742 12.3279 4.56435 12.1886C4.41142 12.0494 4.16266 12.0494 4.02867 12.1886H4.02868Z" fill="#009FFF"/>
<path d="M13.4396 12.1886C13.2865 12.0494 13.057 12.0494 12.9039 12.1886C12.7508 12.3279 12.7508 12.5366 12.9039 12.6759L14.0326 13.7025C14.1091 13.772 14.2047 13.8069 14.3004 13.8069C14.3961 13.8069 14.4918 13.772 14.5683 13.7025C14.7213 13.5633 14.7213 13.3545 14.5683 13.2153L13.4396 12.1886Z" fill="#009FFF"/>
</svg>
