<svg width="16" height="18" viewBox="0 0 16 18" fill="none" xmlns="http://www.w3.org/2000/svg">
<path d="M5.52859 5.12732C5.52859 3.83435 4.63689 2.742 3.43308 2.4522V0.668781C3.43308 0.289805 3.12098 0 2.7643 0C2.38532 0 2.09552 0.312098 2.09552 0.668781V2.4522C0.891709 2.7643 0 3.83435 0 5.12732C0 6.4203 0.891709 7.51264 2.09552 7.80245V16.5412C2.09552 16.9202 2.40761 17.21 2.7643 17.21C3.14327 17.21 3.43308 16.8979 3.43308 16.5412V7.80245C4.61459 7.49035 5.52859 6.4203 5.52859 5.12732ZM2.742 6.55406C1.96176 6.55406 1.31527 5.90757 1.31527 5.12732C1.31527 4.34708 1.96176 3.70059 2.742 3.70059C3.52225 3.70059 4.16874 4.34708 4.16874 5.12732C4.16874 5.90757 3.52225 6.55406 2.742 6.55406Z" fill="#5C728D"/>
<path d="M8.62839 9.40752V0.668781C8.62839 0.289805 8.31629 0 7.95961 0C7.58063 0 7.29083 0.312098 7.29083 0.668781V9.40752C6.08702 9.71962 5.19531 10.7897 5.19531 12.0827C5.19531 13.3756 6.08702 14.468 7.29083 14.7578V16.5412C7.29083 16.9202 7.60293 17.21 7.95961 17.21C8.33859 17.21 8.62839 16.8979 8.62839 16.5412V14.7578C9.8322 14.4457 10.7239 13.3756 10.7239 12.0827C10.7239 10.7897 9.8322 9.71962 8.62839 9.40752ZM7.95961 13.5094C7.17936 13.5094 6.53288 12.8629 6.53288 12.0827C6.53288 11.3024 7.17936 10.6559 7.95961 10.6559C8.73986 10.6559 9.38634 11.3024 9.38634 12.0827C9.36405 12.8629 8.73986 13.5094 7.95961 13.5094Z" fill="#5C728D"/>
<path d="M15.9388 5.12732C15.9388 3.83435 15.047 2.742 13.8432 2.4522V0.668781C13.8432 0.289805 13.5311 0 13.1745 0C12.8178 0 12.5057 0.312098 12.5057 0.668781V2.4522C11.3019 2.7643 10.4102 3.83435 10.4102 5.12732C10.4102 6.4203 11.3019 7.51264 12.5057 7.80245V16.5412C12.5057 16.9202 12.8178 17.21 13.1745 17.21C13.5311 17.21 13.8432 16.8979 13.8432 16.5412V7.80245C15.047 7.49035 15.9388 6.4203 15.9388 5.12732ZM13.1745 6.55406C12.3942 6.55406 11.7477 5.90757 11.7477 5.12732C11.7477 4.34708 12.3942 3.70059 13.1745 3.70059C13.9547 3.70059 14.6012 4.34708 14.6012 5.12732C14.6012 5.90757 13.9547 6.55406 13.1745 6.55406Z" fill="#5C728D"/>
</svg>
