<svg width="18" height="15" viewBox="0 0 18 15" fill="none" xmlns="http://www.w3.org/2000/svg">
<path d="M4.74617 0H0.581435C0.427229 0 0.279339 0.0610699 0.170298 0.169775C0.0612582 0.278479 0 0.425915 0 0.579646V4.49392C0 4.64765 0.0612582 4.79508 0.170298 4.90379C0.279339 5.01249 0.427229 5.07356 0.581435 5.07356C0.735641 5.07356 0.883532 5.01249 0.992572 4.90379C1.10161 4.79508 1.16287 4.64765 1.16287 4.49392V1.15929H4.74617C4.90038 1.15929 5.04827 1.09822 5.15731 0.989518C5.26635 0.880814 5.32761 0.733378 5.32761 0.579646C5.32761 0.425915 5.26635 0.278479 5.15731 0.169775C5.04827 0.0610699 4.90038 4.58156e-09 4.74617 0Z" fill="#5C728D"/>
<path d="M16.5196 0H12.3549C12.2007 4.58156e-09 12.0528 0.0610699 11.9437 0.169775C11.8347 0.278479 11.7734 0.425915 11.7734 0.579646C11.7734 0.733378 11.8347 0.880814 11.9437 0.989518C12.0528 1.09822 12.2007 1.15929 12.3549 1.15929H15.9382V4.49392C15.9382 4.64765 15.9994 4.79508 16.1085 4.90379C16.2175 5.01249 16.3654 5.07356 16.5196 5.07356C16.6738 5.07356 16.8217 5.01249 16.9307 4.90379C17.0398 4.79508 17.101 4.64765 17.101 4.49392V0.579646C17.101 0.425915 17.0398 0.278479 16.9307 0.169775C16.8217 0.0610699 16.6738 0 16.5196 0Z" fill="#5C728D"/>
<path d="M4.74617 13.3418H1.16287V10.0071C1.16287 9.8534 1.10161 9.70597 0.992572 9.59727C0.883532 9.48856 0.735641 9.42749 0.581435 9.42749C0.427229 9.42749 0.279339 9.48856 0.170298 9.59727C0.0612582 9.70597 0 9.8534 0 10.0071V13.9214C0 14.0751 0.0612582 14.2226 0.170298 14.3313C0.279339 14.44 0.427229 14.5011 0.581435 14.5011H4.74617C4.90038 14.5011 5.04827 14.44 5.15731 14.3313C5.26635 14.2226 5.32761 14.0751 5.32761 13.9214C5.32761 13.7677 5.26635 13.6202 5.15731 13.5115C5.04827 13.4028 4.90038 13.3418 4.74617 13.3418Z" fill="#5C728D"/>
<path d="M16.5196 9.42749C16.3654 9.42749 16.2175 9.48856 16.1085 9.59727C15.9994 9.70597 15.9382 9.8534 15.9382 10.0071V13.3418H12.3549C12.2007 13.3418 12.0528 13.4028 11.9437 13.5115C11.8347 13.6202 11.7734 13.7677 11.7734 13.9214C11.7734 14.0751 11.8347 14.2226 11.9437 14.3313C12.0528 14.44 12.2007 14.5011 12.3549 14.5011H16.5196C16.6738 14.5011 16.8217 14.44 16.9307 14.3313C17.0398 14.2226 17.101 14.0751 17.101 13.9214V10.0071C17.101 9.8534 17.0398 9.70597 16.9307 9.59727C16.8217 9.48856 16.6738 9.42749 16.5196 9.42749Z" fill="#5C728D"/>
</svg>
