<svg width="111" height="20" viewBox="0 0 111 20" fill="none" xmlns="http://www.w3.org/2000/svg">
<path d="M41.3828 17H39.5156V12.1406H34.2422V17H32.3828V5.79688H34.2422V10.5078H39.5156V5.79688H41.3828V17ZM44.8594 7.32031C44.5625 7.32031 44.3073 7.22396 44.0938 7.03125C43.8854 6.83854 43.7812 6.59375 43.7812 6.29688C43.7812 6 43.8854 5.7526 44.0938 5.55469C44.3073 5.35677 44.5625 5.25781 44.8594 5.25781C45.1667 5.25781 45.4271 5.35677 45.6406 5.55469C45.8542 5.7526 45.9609 6 45.9609 6.29688C45.9609 6.57812 45.8542 6.82031 45.6406 7.02344C45.4271 7.22135 45.1667 7.32031 44.8594 7.32031ZM45.7578 17H43.9453V9H45.7578V17ZM55.4062 17H53.5938V15.6406H53.5625C52.9792 16.6719 52.0807 17.1875 50.8672 17.1875C49.8828 17.1875 49.0938 16.8307 48.5 16.1172C47.9115 15.3984 47.6172 14.4219 47.6172 13.1875C47.6172 11.8646 47.9427 10.8047 48.5938 10.0078C49.25 9.21094 50.1224 8.8125 51.2109 8.8125C52.2891 8.8125 53.0729 9.24479 53.5625 10.1094H53.5938V5.15625H55.4062V17ZM53.6172 13.3438V12.2969C53.6172 11.7292 53.4323 11.2474 53.0625 10.8516C52.6927 10.4557 52.2214 10.2578 51.6484 10.2578C50.9714 10.2578 50.4375 10.5104 50.0469 11.0156C49.6615 11.5208 49.4688 12.2214 49.4688 13.1172C49.4688 13.9297 49.6536 14.5729 50.0234 15.0469C50.3984 15.5156 50.901 15.75 51.5312 15.75C52.151 15.75 52.6536 15.5234 53.0391 15.0703C53.4245 14.612 53.6172 14.0365 53.6172 13.3438ZM64.5469 13.4922H59.0938C59.1146 14.2318 59.3411 14.8021 59.7734 15.2031C60.2109 15.6042 60.8099 15.8047 61.5703 15.8047C62.4245 15.8047 63.2083 15.5495 63.9219 15.0391V16.5C63.1927 16.9583 62.2292 17.1875 61.0312 17.1875C59.8542 17.1875 58.9297 16.8255 58.2578 16.1016C57.5911 15.3724 57.2578 14.349 57.2578 13.0312C57.2578 11.7865 57.625 10.7734 58.3594 9.99219C59.099 9.20573 60.0156 8.8125 61.1094 8.8125C62.2031 8.8125 63.0495 9.16406 63.6484 9.86719C64.2474 10.5703 64.5469 11.5469 64.5469 12.7969V13.4922ZM62.7969 12.2109C62.7917 11.5599 62.638 11.0547 62.3359 10.6953C62.0339 10.3307 61.6172 10.1484 61.0859 10.1484C60.5651 10.1484 60.1224 10.3385 59.7578 10.7188C59.3984 11.099 59.1771 11.5964 59.0938 12.2109H62.7969ZM82.6406 17H80.8281V12.6406C80.8281 11.8021 80.7083 11.1953 80.4688 10.8203C80.2344 10.4453 79.8359 10.2578 79.2734 10.2578C78.7995 10.2578 78.3958 10.4948 78.0625 10.9688C77.7344 11.4427 77.5703 12.0104 77.5703 12.6719V17H75.75V12.4922C75.75 11.0026 75.224 10.2578 74.1719 10.2578C73.6823 10.2578 73.2786 10.4818 72.9609 10.9297C72.6484 11.3776 72.4922 11.9583 72.4922 12.6719V17H70.6797V9H72.4922V10.2656H72.5234C73.1016 9.29688 73.9427 8.8125 75.0469 8.8125C75.599 8.8125 76.0807 8.96615 76.4922 9.27344C76.9089 9.57552 77.1927 9.97396 77.3438 10.4688C77.9375 9.36458 78.8229 8.8125 80 8.8125C81.7604 8.8125 82.6406 9.89844 82.6406 12.0703V17ZM91.625 13.4922H86.1719C86.1927 14.2318 86.4193 14.8021 86.8516 15.2031C87.2891 15.6042 87.888 15.8047 88.6484 15.8047C89.5026 15.8047 90.2865 15.5495 91 15.0391V16.5C90.2708 16.9583 89.3073 17.1875 88.1094 17.1875C86.9323 17.1875 86.0078 16.8255 85.3359 16.1016C84.6693 15.3724 84.3359 14.349 84.3359 13.0312C84.3359 11.7865 84.7031 10.7734 85.4375 9.99219C86.1771 9.20573 87.0938 8.8125 88.1875 8.8125C89.2812 8.8125 90.1276 9.16406 90.7266 9.86719C91.3255 10.5703 91.625 11.5469 91.625 12.7969V13.4922ZM89.875 12.2109C89.8698 11.5599 89.7161 11.0547 89.4141 10.6953C89.112 10.3307 88.6953 10.1484 88.1641 10.1484C87.6432 10.1484 87.2005 10.3385 86.8359 10.7188C86.4766 11.099 86.2552 11.5964 86.1719 12.2109H89.875ZM100.477 17H98.6641V12.4922C98.6641 10.9974 98.1354 10.25 97.0781 10.25C96.526 10.25 96.0703 10.4583 95.7109 10.875C95.3516 11.2865 95.1719 11.8073 95.1719 12.4375V17H93.3516V9H95.1719V10.3281H95.2031C95.8021 9.31771 96.6667 8.8125 97.7969 8.8125C98.6667 8.8125 99.3307 9.09635 99.7891 9.66406C100.247 10.2266 100.477 11.0417 100.477 12.1094V17ZM109.672 17H107.859V15.7344H107.828C107.302 16.7031 106.484 17.1875 105.375 17.1875C103.484 17.1875 102.539 16.0521 102.539 13.7812V9H104.352V13.5938C104.352 15.0312 104.906 15.75 106.016 15.75C106.552 15.75 106.992 15.5521 107.336 15.1562C107.685 14.7604 107.859 14.2422 107.859 13.6016V9H109.672V17Z" fill="#354E5C"/>
<path d="M0.389722 11.9281L4.31838 15.6787C4.80239 16.1404 5.54805 16.1004 5.98335 15.5854C6.41864 15.0729 6.37935 14.2821 5.89534 13.8205L4.25081 12.2497L9.9526 12.2497C10.604 12.2497 11 11.6906 11 10.9998C11 10.309 10.604 9.74983 9.9526 9.74983L4.24924 9.74983L5.89613 8.17907C6.38014 7.71659 6.41943 6.92662 5.98413 6.41415C5.75077 6.13999 5.42941 6 5.10726 6C4.82596 6 4.54389 6.10583 4.31917 6.32082L0.390508 10.0698C0.142216 10.3065 -4.85507e-07 10.6448 -5.16468e-07 10.9989C-5.47429e-07 11.3531 0.142217 11.6914 0.389722 11.9281Z" fill="#697E8B"/>
<rect x="13" y="3" width="3" height="16" rx="1.5" fill="#697E8B"/>
</svg>
