<svg width="17" height="17" viewBox="0 0 17 17" fill="none" xmlns="http://www.w3.org/2000/svg">
<path d="M16.4333 7.3667C16.283 7.3667 16.1389 7.4264 16.0326 7.53267C15.9264 7.63894 15.8667 7.78308 15.8667 7.93337V14.1667C15.8667 14.6176 15.6876 15.05 15.3687 15.3688C15.0499 15.6876 14.6175 15.8667 14.1667 15.8667H2.83333C2.38247 15.8667 1.95006 15.6876 1.63125 15.3688C1.31244 15.05 1.13333 14.6176 1.13333 14.1667V7.93337C1.13333 7.78308 1.07363 7.63894 0.967361 7.53267C0.86109 7.4264 0.716956 7.3667 0.566667 7.3667C0.416377 7.3667 0.272243 7.4264 0.165973 7.53267C0.0597022 7.63894 0 7.78308 0 7.93337V14.1667C0 14.9181 0.298511 15.6388 0.829864 16.1702C1.09296 16.4333 1.40531 16.642 1.74906 16.7844C2.09282 16.9267 2.46125 17 2.83333 17H14.1667C14.9181 17 15.6388 16.7015 16.1701 16.1702C16.7015 15.6388 17 14.9181 17 14.1667V7.93337C17 7.78308 16.9403 7.63894 16.834 7.53267C16.7278 7.4264 16.5836 7.3667 16.4333 7.3667Z" fill="#5C728D"/>
<path d="M14.1667 2.26667H13.0333V0.566667C13.0333 0.416377 12.9736 0.272243 12.8674 0.165973C12.7611 0.0597022 12.617 0 12.4667 0C12.3164 0 12.1722 0.0597022 12.066 0.165973C11.9597 0.272243 11.9 0.416377 11.9 0.566667V2.26667H5.1V0.566667C5.1 0.416377 5.0403 0.272243 4.93403 0.165973C4.82776 0.0597022 4.68362 0 4.53333 0C4.38304 0 4.23891 0.0597022 4.13264 0.165973C4.02637 0.272243 3.96667 0.416377 3.96667 0.566667V2.26667H2.83333C2.46125 2.26667 2.09282 2.33995 1.74906 2.48234C1.40531 2.62473 1.09296 2.83343 0.829864 3.09653C0.298511 3.62788 0 4.34855 0 5.1V6.23333C0 6.38362 0.0597022 6.52776 0.165973 6.63403C0.272243 6.7403 0.416377 6.8 0.566667 6.8H16.4333C16.5836 6.8 16.7278 6.7403 16.834 6.63403C16.9403 6.52776 17 6.38362 17 6.23333V5.1C17 4.34855 16.7015 3.62788 16.1701 3.09653C15.6388 2.56518 14.9181 2.26667 14.1667 2.26667ZM15.8667 5.66667H1.13333V5.1C1.13333 4.64913 1.31244 4.21673 1.63125 3.89792C1.95006 3.57911 2.38247 3.4 2.83333 3.4H14.1667C14.6175 3.4 15.0499 3.57911 15.3687 3.89792C15.6876 4.21673 15.8667 4.64913 15.8667 5.1V5.66667Z" fill="#5C728D"/>
</svg>
