<svg width="18" height="18" viewBox="0 0 18 18" fill="none" xmlns="http://www.w3.org/2000/svg">
<path d="M8.61 0.918211C12.8511 0.918211 16.302 4.36894 16.302 8.61018C16.302 12.8514 12.8511 16.3021 8.61 16.3021C4.36894 16.3021 0.918034 12.8512 0.918034 8.61018C0.918034 4.36912 4.36894 0.918211 8.61 0.918211ZM8.61 0C3.85422 0 0 3.8544 0 8.61C0 13.3656 3.8544 17.22 8.61 17.22C13.3656 17.22 17.22 13.3656 17.22 8.61C17.22 3.8544 13.3658 0 8.61 0Z" fill="#5C728D"/>
<path d="M9.09951 8.13759C7.72999 7.68805 7.34545 6.89542 7.43242 6.35271C7.51088 5.86119 8.00187 5.36454 8.92062 5.36454C10.1034 5.36454 10.3534 6.48573 10.3782 6.61787C10.4341 6.92961 10.7459 7.13082 11.0419 7.0814C11.3547 7.02649 11.5332 6.72875 11.4785 6.41666C11.36 5.74075 10.8252 4.53046 9.40824 4.26779V3.27377C9.40824 2.95654 9.19409 2.69971 8.87687 2.69971C8.55946 2.69971 8.34549 2.95654 8.34549 3.27377V4.27133C7.28275 4.47024 6.46745 5.19627 6.31175 6.17169C6.15376 7.16005 6.69204 8.55348 8.7481 9.22832C9.82926 9.58328 10.4148 10.1517 10.3195 10.7503C10.2377 11.2649 9.616 11.7986 8.72029 11.7986C7.18551 11.7986 7.07534 10.9633 7.06931 10.8063C7.06931 10.4891 6.81231 10.2324 6.4949 10.2324C6.17767 10.2324 5.93359 10.4891 5.93359 10.8063C5.93359 11.4998 6.39713 12.7729 8.34549 12.9304V13.7368C8.34549 14.0542 8.55946 14.3109 8.87687 14.3109C9.19409 14.3109 9.40824 14.0542 9.40824 13.7368V12.8583C10.471 12.6103 11.2718 11.8638 11.42 10.9307C11.493 10.4801 11.5653 8.94581 9.09951 8.13759Z" fill="#5C728D"/>
</svg>
