<svg width="13" height="17" viewBox="0 0 13 17" fill="none" xmlns="http://www.w3.org/2000/svg">
<path d="M10.9176 1.61861H8.90502V1.21383C8.90502 1.10648 8.86237 1.00352 8.78646 0.927614C8.71055 0.851704 8.6076 0.809058 8.50025 0.809058H7.2163C7.13253 0.572424 6.97747 0.367569 6.77248 0.222682C6.56749 0.077796 6.32263 0 6.0716 0C5.82058 0 5.57572 0.077796 5.37073 0.222682C5.16573 0.367569 5.01068 0.572424 4.9269 0.809058H3.64296C3.53561 0.809058 3.43265 0.851704 3.35674 0.927614C3.28083 1.00352 3.23819 1.10648 3.23819 1.21383V1.61861H1.22565C0.900656 1.61882 0.589031 1.74802 0.359223 1.97783C0.129414 2.20764 0.000214449 2.51926 0 2.84426V15.7743C0.000214449 16.0993 0.129414 16.411 0.359223 16.6408C0.589031 16.8706 0.900656 16.9998 1.22565 17H10.9176C11.2426 16.9998 11.5542 16.8706 11.784 16.6408C12.0138 16.411 12.143 16.0993 12.1432 15.7743V2.84426C12.143 2.51926 12.0138 2.20764 11.784 1.97783C11.5542 1.74802 11.2426 1.61882 10.9176 1.61861ZM4.04774 1.61861H5.26206C5.36941 1.61861 5.47236 1.57596 5.54827 1.50005C5.62418 1.42414 5.66683 1.32118 5.66683 1.21383C5.66683 1.10648 5.70948 1.00352 5.78539 0.927614C5.86129 0.851704 5.96425 0.809058 6.0716 0.809058C6.17896 0.809058 6.28191 0.851704 6.35782 0.927614C6.43373 1.00352 6.47638 1.10648 6.47638 1.21383C6.47638 1.32118 6.51902 1.42414 6.59493 1.50005C6.67084 1.57596 6.7738 1.61861 6.88115 1.61861H8.09547V2.42815H4.04774V1.61861ZM11.3337 15.7743C11.3337 15.8847 11.2898 15.9905 11.2118 16.0686C11.1337 16.1466 11.0279 16.1905 10.9176 16.1905H1.22565C1.1153 16.1905 1.00946 16.1466 0.931422 16.0686C0.853387 15.9905 0.809547 15.8847 0.809547 15.7743V2.84426C0.809547 2.7339 0.853387 2.62806 0.931422 2.55003C1.00946 2.47199 1.1153 2.42815 1.22565 2.42815H3.23819V2.83293C3.23819 2.94028 3.28083 3.04323 3.35674 3.11914C3.43265 3.19505 3.53561 3.2377 3.64296 3.2377H8.50025C8.6076 3.2377 8.71055 3.19505 8.78646 3.11914C8.86237 3.04323 8.90502 2.94028 8.90502 2.83293V2.42815H10.9176C11.0279 2.42815 11.1337 2.47199 11.2118 2.55003C11.2898 2.62806 11.3337 2.7339 11.3337 2.84426V15.7743Z" fill="#5C728D"/>
<path d="M3.00832 6.30822L2.31454 5.61444L1.74219 6.18679L2.72174 7.16715C2.79765 7.24303 2.90058 7.28566 3.00791 7.28566C3.11525 7.28566 3.21818 7.24303 3.29409 7.16715L4.96904 5.493L4.39669 4.92065L3.00832 6.30822Z" fill="#5C728D"/>
<path d="M10.2355 5.78223H5.95703V6.59177H10.2355V5.78223Z" fill="#5C728D"/>
<path d="M3.00832 9.5465L2.31454 8.85272L1.74219 9.42507L2.72174 10.4054C2.79765 10.4813 2.90058 10.5239 3.00791 10.5239C3.11525 10.5239 3.21818 10.4813 3.29409 10.4054L4.96904 8.73129L4.39669 8.15894L3.00832 9.5465Z" fill="#5C728D"/>
<path d="M10.2355 9.02026H5.95703V9.82981H10.2355V9.02026Z" fill="#5C728D"/>
<path d="M3.00832 12.7848L2.31454 12.091L1.74219 12.6633L2.72174 13.6437C2.79765 13.7196 2.90058 13.7622 3.00791 13.7622C3.11525 13.7622 3.21818 13.7196 3.29409 13.6437L4.96904 11.9696L4.39669 11.3972L3.00832 12.7848Z" fill="#5C728D"/>
<path d="M10.2355 12.2585H5.95703V13.0681H10.2355V12.2585Z" fill="#5C728D"/>
</svg>
