<svg width="18" height="18" viewBox="0 0 18 18" fill="none" xmlns="http://www.w3.org/2000/svg">
<path d="M5.92798 17.0096C5.67436 17.0118 5.42264 16.9656 5.18633 16.8735C4.41237 16.5673 3.82551 15.7083 3.86123 14.9139C3.87824 14.4036 3.6486 13.861 3.4751 13.6943C3.30159 13.5276 2.74706 13.3081 2.24185 13.3421C1.45428 13.3932 0.573145 12.8386 0.244846 12.0766C-0.0834521 11.3145 0.112166 10.2905 0.693918 9.75297C1.06304 9.41276 1.28588 8.85993 1.28247 8.61668C1.27907 8.37343 1.03923 7.83251 0.658196 7.4974C0.0594342 6.97349 -0.170205 5.95287 0.13428 5.18911C0.438764 4.42535 1.29948 3.82828 2.09386 3.86401C2.60417 3.88102 3.1468 3.65138 3.3169 3.47787C3.48701 3.30437 3.69964 2.74983 3.66561 2.24463C3.61288 1.45365 4.16742 0.574215 4.93288 0.245916C5.69834 -0.0823822 6.71726 0.113236 7.25819 0.694988C7.55743 1.01307 7.95553 1.22051 8.38767 1.28354C8.63092 1.28354 9.17184 1.0403 9.50354 0.659267C10.036 0.0588032 11.0566 -0.170836 11.8186 0.13535C12.5807 0.441535 13.1795 1.30055 13.1437 2.09494C13.1233 2.60524 13.3564 3.14787 13.5316 3.31798C13.7068 3.48808 14.2596 3.70071 14.7614 3.66669C15.5558 3.61395 16.4318 4.16849 16.7618 4.92885C17.0918 5.68921 16.8945 6.71323 16.3162 7.25416C15.9436 7.59436 15.7208 8.1506 15.7276 8.39044C15.7344 8.63029 15.9709 9.17462 16.3519 9.50632C16.9506 10.0285 17.1786 11.0372 16.8741 11.8146C16.7142 12.1934 16.4505 12.5192 16.1134 12.7546C15.7764 12.99 15.3796 13.1252 14.969 13.1448H14.9145C14.4042 13.1244 13.8616 13.3574 13.6949 13.531C13.5282 13.7045 13.3121 14.259 13.3462 14.7642C13.3989 15.5552 12.8359 16.4312 12.0806 16.7646C11.3253 17.098 10.2962 16.8973 9.7587 16.3189C9.41849 15.9498 8.87246 15.727 8.62581 15.727C8.38257 15.727 7.84164 15.9702 7.50994 16.3513C7.30634 16.5647 7.06055 16.7335 6.78821 16.8468C6.51586 16.9601 6.22291 17.0156 5.92798 17.0096ZM2.34732 12.3981C3.01242 12.3981 3.75237 12.6498 4.1317 13.0155C4.53994 13.4102 4.82912 14.242 4.81211 14.9462C4.8268 15.1694 4.90201 15.3845 5.02968 15.5682C5.15735 15.7519 5.33264 15.8973 5.53675 15.9889C5.7496 16.0644 5.9792 16.0796 6.20014 16.0328C6.42109 15.986 6.62478 15.8789 6.7887 15.7236C7.25308 15.1929 8.03045 14.7863 8.5986 14.7761C9.16674 14.7659 9.95942 15.1486 10.4391 15.6657C10.7113 15.9583 11.2998 16.0604 11.7013 15.8886C12.1027 15.7168 12.4293 15.2082 12.4021 14.8152C12.3562 14.1144 12.6181 13.2741 13.0128 12.8659C13.4074 12.4576 14.2392 12.1684 14.9468 12.1854H14.969C15.1935 12.1747 15.4101 12.0989 15.5924 11.9673C15.7747 11.8357 15.9148 11.6539 15.9957 11.4442C16.0766 11.2344 16.0948 11.0057 16.0481 10.7858C16.0014 10.5659 15.8919 10.3642 15.7327 10.2054C15.202 9.74106 14.7954 8.96369 14.7852 8.39555C14.775 7.8274 15.1578 7.03472 15.6749 6.55503C15.8249 6.38572 15.9253 6.17836 15.9652 5.95572C16.0051 5.73308 15.9829 5.50374 15.9011 5.29287C15.8042 5.08879 15.6529 4.91539 15.4639 4.79175C15.2748 4.6681 15.0553 4.599 14.8295 4.59205C14.1286 4.63797 13.2883 4.37602 12.8801 3.97797C12.4718 3.57993 12.1827 2.74813 12.1997 2.0439C12.1846 1.82032 12.1086 1.60512 11.98 1.42162C11.8514 1.23812 11.675 1.09331 11.4699 1.00287C11.2571 0.927369 11.0275 0.912193 10.8065 0.959023C10.5856 1.00585 10.3819 1.11287 10.218 1.26823C9.75189 1.80066 8.97452 2.21061 8.40638 2.21061H8.38767C7.82463 2.21061 7.04216 1.83638 6.56587 1.32437C6.39665 1.17422 6.18929 1.07365 5.96661 1.03374C5.74392 0.993823 5.51454 1.01611 5.30371 1.09813C4.90566 1.26823 4.57566 1.77854 4.60288 2.17148C4.64881 2.87571 4.38685 3.71261 3.99221 4.12086C3.59757 4.52911 2.76577 4.81828 2.06154 4.79277H2.04113C1.82068 4.81225 1.60955 4.89078 1.42995 5.02009C1.25035 5.1494 1.10891 5.32472 1.02052 5.52761C0.94501 5.74047 0.929834 5.97006 0.976664 6.19101C1.0235 6.41195 1.13051 6.61565 1.28588 6.77957C1.8166 7.24395 2.22314 8.02132 2.23335 8.59287C2.24356 9.16441 1.86082 9.95369 1.34711 10.4334C1.19709 10.602 1.09656 10.8088 1.05664 11.0309C1.01672 11.253 1.03895 11.4819 1.12088 11.6921C1.29098 12.0902 1.80129 12.4202 2.19423 12.393C2.24511 12.3977 2.29623 12.3994 2.34732 12.3981ZM8.50504 12.1089C7.61289 12.1095 6.75219 11.7793 6.08944 11.182C5.4267 10.5848 5.00899 9.76298 4.91713 8.87557C4.82526 7.98815 5.06576 7.0982 5.59211 6.37786C6.11847 5.65751 6.89326 5.15796 7.76663 4.97584C8.64 4.79371 9.54988 4.94196 10.3203 5.39189C11.0907 5.84182 11.6668 6.56148 11.9373 7.41165C12.2078 8.26181 12.1533 9.18208 11.7845 9.99444C11.4157 10.8068 10.7588 11.4535 9.94071 11.8095L9.7553 11.3775L9.94071 11.8095C9.48748 12.0059 8.99897 12.1077 8.50504 12.1089ZM8.50504 5.85081C8.14378 5.85056 7.78641 5.92528 7.45551 6.07024C6.85406 6.33267 6.37135 6.8089 6.10083 7.40676C5.83031 8.00462 5.79122 8.68158 5.99112 9.3066C6.19101 9.93163 6.61568 10.4603 7.18293 10.7902C7.75017 11.1201 8.41964 11.2278 9.06176 11.0926C9.70387 10.9573 10.273 10.5886 10.6589 10.0578C11.0448 9.52707 11.22 8.87203 11.1508 8.21948C11.0815 7.56694 10.7726 6.9633 10.2838 6.52542C9.79507 6.08754 9.16125 5.84655 8.50504 5.84911V5.85081Z" fill="#5C728D"/>
</svg>
