<svg width="16" height="18" viewBox="0 0 16 18" fill="none" xmlns="http://www.w3.org/2000/svg">
<path d="M14.352 15.3851C14.7541 15.3851 15.08 15.0523 15.08 14.6432V1.3208C15.08 1.196 14.9795 1.09547 14.8547 1.09547C14.7299 1.09547 14.6293 1.196 14.6293 1.3208V14.6432C14.6293 14.8027 14.5045 14.9309 14.3555 14.9309H7.3216C6.032 14.9309 5.17227 15.2949 4.65227 15.6277V15.1181C5.0232 14.8443 5.77547 14.4491 7.04427 14.4491H13.3987C13.7731 14.4491 14.0781 14.1509 14.0781 13.7835V0.6656C14.0781 0.298133 13.7731 0 13.3987 0H8.4656C6.032 0 4.9816 0.890933 4.53093 1.716C4.2224 0.793867 3.35227 0.1248 2.32613 0.1248C1.04347 0.1248 0 1.16827 0 2.45093V15.0037C0 16.2864 1.04347 17.3299 2.32613 17.3299H13.8528C13.9776 17.3299 14.0781 17.2293 14.0781 17.1045C14.0781 16.9797 13.9776 16.8792 13.8528 16.8792H2.32613C1.95173 16.8792 1.6016 16.7683 1.30693 16.5741C1.23067 16.3939 1.18907 16.1997 1.18907 15.9917C1.18907 15.1632 1.86507 14.4872 2.6936 14.4872C3.09573 14.4872 3.47013 14.6432 3.744 14.9275C4.02827 15.2221 4.17733 15.6243 4.16 16.0611C4.15653 16.1235 4.1808 16.1824 4.2224 16.2275C4.264 16.2725 4.32293 16.2968 4.38533 16.2968H14.8131C14.9379 16.2968 15.0384 16.1963 15.0384 16.0715C15.0384 15.9467 14.9379 15.8461 14.8131 15.8461H5.17227C5.6472 15.6035 6.34747 15.3816 7.3216 15.3816L14.352 15.3851ZM8.4656 0.454134H13.3987C13.5235 0.454134 13.624 0.547733 13.624 0.6656V13.7835C13.624 13.9013 13.5235 13.9949 13.3987 13.9949H7.04427C5.90027 13.9949 5.1272 14.2931 4.65227 14.5739V2.9224C4.67653 2.34 5.0232 0.454134 8.4656 0.454134ZM0.454133 2.4544C0.454133 1.42133 1.29307 0.5824 2.32613 0.5824C3.3592 0.5824 4.19813 1.42133 4.19813 2.4544C4.19813 2.49947 4.212 2.54107 4.2328 2.57573C4.212 2.70747 4.2016 2.82187 4.19813 2.912V2.91547V2.91893V13.6309C3.7752 13.0555 3.09573 12.6776 2.32613 12.6776C1.55653 12.6776 0.877067 13.0555 0.454133 13.6309V2.4544ZM4.06987 14.6189C3.70933 14.2445 3.22053 14.04 2.6936 14.04C1.61547 14.04 0.7384 14.9171 0.734933 15.9952C0.554667 15.7075 0.450667 15.3712 0.450667 15.0072C0.450667 13.9741 1.2896 13.1352 2.32267 13.1352C3.26213 13.1352 4.04213 13.8355 4.17387 14.7403C4.14267 14.6952 4.108 14.6571 4.06987 14.6189Z" fill="#5C728D"/>
</svg>
