<svg width="18" height="18" viewBox="0 0 18 18" fill="none" xmlns="http://www.w3.org/2000/svg">
<path d="M0 11.0345L0.262725 11.2973L1.70775 12.7422L1.97047 13.005L2.2332 12.7422C2.88925 12.0862 3.94171 12.0862 4.59774 12.7422C5.25381 13.3983 5.25379 14.4507 4.59774 15.1068L4.33501 15.3695L4.59774 15.6323L6.04274 17.0773L6.30547 17.34L6.56819 17.0773L17.0773 6.56818L17.34 6.30545L17.0773 6.04273L15.6323 4.59772L15.3696 4.335L15.1068 4.59772C14.4508 5.25378 13.3984 5.25379 12.7423 4.59772C12.0862 3.94168 12.0862 2.88924 12.7423 2.23318L13.005 1.97046L12.7423 1.70773L11.2973 0.262722L11.0345 0L10.7718 0.262722L0.262743 10.7718L1.86028e-05 11.0345H0ZM1.0509 11.0345L7.75045 4.335L13.005 9.58954L6.30547 16.2891L5.35717 15.3408C6.04564 14.3975 5.97367 13.0673 5.12319 12.2168C4.27267 11.3663 2.93844 11.2902 1.99511 11.9787L1.05092 11.0345H1.0509ZM8.2759 3.80955L11.0345 1.05091L11.9787 1.99509C11.2902 2.93843 11.3663 4.27267 12.2168 5.12318C13.0673 5.97367 14.3975 6.04562 15.3408 5.35718L16.2891 6.30545L13.5305 9.06409L8.2759 3.80955ZM5.91136 7.75045L6.64209 9.46639L5.37772 10.895L7.25374 10.6938L8.18972 12.303L8.62076 10.4598L10.4639 10.0288L8.85474 9.09282L9.0559 7.21679L7.62732 8.48116L5.91138 7.75045H5.91136Z" fill="#5C728D"/>
</svg>
